<?xml version="1.0" encoding="UTF-8"?>
<svg version="1.1" xmlns="http://www.w3.org/2000/svg" width="339" height="271">
<path d="M0 0 C-3 2 -3 2 -6.5625 3.5625 C-12.2260835 6.35792012 -16.47935631 10.66592256 -21 15 C-21.75023437 15.67546875 -22.50046875 16.3509375 -23.2734375 17.046875 C-31.74471698 24.91981132 -34.70443321 34.61838521 -36 46 C-35.78979128 60.42355236 -29.56709441 73.16575126 -21.98413086 85.07788086 C-19.08747932 89.63996605 -19.08747932 89.63996605 -18.42578125 92.36328125 C-18.28527344 92.90339844 -18.14476562 93.44351563 -18 94 C-17.01 94.33 -16.02 94.66 -15 95 C-13.34375 96.9765625 -13.34375 96.9765625 -11.5 99.625 C-10.80003906 100.61886719 -10.10007812 101.61273438 -9.37890625 102.63671875 C-8.99879395 103.1786084 -8.61868164 103.72049805 -8.22705078 104.27880859 C-6.93697175 106.0884101 -5.61278171 107.86816892 -4.27734375 109.64453125 C8.4927007 126.64920184 18.46686799 144.50843929 18.3125 166.375 C18.30758545 167.20499512 18.3026709 168.03499023 18.29760742 168.89013672 C18.06309061 181.20768105 14.2056929 192.09729762 5.84375 201.3125 C-4.89997504 211.14573986 -18.78285851 216.38427274 -33.2109375 216.14453125 C-48.32830615 215.3611382 -62.04923094 210.79031823 -73 200 C-75.17788534 197.43726746 -77.15911999 194.81370278 -79 192 C-82.01014549 194.33043522 -82.9405954 195.76238161 -83.875 199.5 C-84.54845016 208.54106841 -82.64352621 217.78804963 -77 225 C-75.5904769 226.20031745 -74.15193671 227.36732949 -72.6875 228.5 C-69.19416013 231.35938783 -69.19416013 231.35938783 -68.34765625 234.15234375 C-68.06939018 240.66376972 -70.47874647 246.21792714 -74.8125 251 C-77.98123696 252.44856547 -80.56782184 252.31779427 -84 252 C-86 250 -86 250 -86.3984375 247.5703125 C-86 245 -86 245 -84.1015625 243.3046875 C-82.87566406 242.59699219 -82.87566406 242.59699219 -81.625 241.875 C-78.44764206 240.00893264 -77.09268459 239.13902689 -75 236 C-75.72703125 235.79246094 -76.4540625 235.58492187 -77.203125 235.37109375 C-88.0801895 232.03824963 -97.81770418 226.99633455 -106 219 C-106 218.34 -106 217.68 -106 217 C-106.66 217 -107.32 217 -108 217 C-108.66 218.32 -109.32 219.64 -110 221 C-110.66 221 -111.32 221 -112 221 C-112.38865234 222.03253906 -112.38865234 222.03253906 -112.78515625 223.0859375 C-114.15669024 226.37585504 -115.78116827 229.4690647 -117.4375 232.625 C-120.18045512 237.91558495 -122.02153929 242.88825167 -123.1015625 248.79296875 C-124.38307314 251.94102749 -125.93422544 252.6293682 -129 254 C-136.04369886 255.44158604 -142.58358586 255.40487125 -149.390625 253.08203125 C-151 252 -151 252 -151.859375 250.01171875 C-151.90578125 249.34785156 -151.9521875 248.68398438 -152 248 C-150 246 -150 246 -146.6640625 245.76953125 C-145.31763807 245.77352263 -143.97121246 245.78827837 -142.625 245.8125 C-141.61566406 245.8134668 -141.61566406 245.8134668 -140.5859375 245.81445312 C-137.25470816 245.84396205 -134.18496038 245.97917936 -131 247 C-131.37511719 246.34515625 -131.75023437 245.6903125 -132.13671875 245.015625 C-144.18256253 223.53336455 -148.0069654 203.05255095 -141.63378906 179.13476562 C-140.36396735 174.85767739 -138.67147103 170.77324145 -136.85546875 166.69921875 C-135.88932125 163.65078074 -136.0432667 162.01985651 -137 159 C-139.63552206 156.36447794 -146.85554289 157.63806412 -150.61816406 157.5949707 C-152.03247554 157.57342885 -153.44665505 157.53936951 -154.86035156 157.49243164 C-162.71325474 156.92854128 -162.71325474 156.92854128 -169.96289062 159.19091797 C-171.51193617 160.88997508 -171.51193617 160.88997508 -173 164 C-173.48484863 164.76513916 -173.96969727 165.53027832 -174.46923828 166.31860352 C-176.12520315 169.21931518 -177.16257348 172.02247534 -178.2265625 175.1875 C-181.00182334 183.14172552 -184.12476704 190.92006699 -187.40136719 198.68017578 C-188.05503945 200.23764666 -188.70045068 201.79860843 -189.33789062 203.36279297 C-190.2772283 205.66665732 -191.24113988 207.9588182 -192.2109375 210.25 C-192.48722992 210.9406958 -192.76352234 211.6313916 -193.04818726 212.34301758 C-195.67526808 218.41034772 -199.64619979 221.98678064 -205.26660156 225.3605957 C-209.72939283 226.40454446 -214.16823372 226.26330759 -218.734375 226.23046875 C-219.7681427 226.23001053 -220.8019104 226.22955231 -221.86700439 226.2290802 C-224.04562533 226.22606526 -226.22424425 226.21820169 -228.40283203 226.20581055 C-231.75170446 226.18749068 -235.10030131 226.18530139 -238.44921875 226.18554688 C-240.56510658 226.18063388 -242.68099252 226.17480652 -244.796875 226.16796875 C-245.80409607 226.16685593 -246.81131714 226.1657431 -247.84906006 226.16459656 C-248.77382141 226.15821671 -249.69858276 226.15183685 -250.65136719 226.14526367 C-251.4690155 226.14145187 -252.28666382 226.13764008 -253.12908936 226.13371277 C-255 226 -255 226 -256 225 C-256.04092937 222.66702567 -256.04241723 220.33294775 -256 218 C-253.67436063 216.83718031 -252.31090945 216.86970706 -249.72143555 216.8581543 C-248.83679123 216.85111984 -247.95214691 216.84408539 -247.04069519 216.83683777 C-245.60322685 216.83059135 -245.60322685 216.83059135 -244.13671875 216.82421875 C-242.11522398 216.80101908 -240.09373957 216.77690169 -238.07226562 216.75195312 C-234.87924281 216.71683798 -231.6866006 216.68749622 -228.4934082 216.67407227 C-225.41570723 216.65859447 -222.33912431 216.61838287 -219.26171875 216.57421875 C-217.83335945 216.57708138 -217.83335945 216.57708138 -216.37614441 216.58000183 C-212.36635903 216.50604472 -209.67793913 216.36364945 -206.10620117 214.44775391 C-203.3846496 211.28486112 -201.74438908 208.04901056 -200.0390625 204.26171875 C-199.68540619 203.50389603 -199.33174988 202.7460733 -198.96737671 201.96528625 C-197.84112504 199.54476182 -196.73280918 197.1165118 -195.625 194.6875 C-194.88920395 193.09775916 -194.1522345 191.50856087 -193.4140625 189.91992188 C-190.60145176 183.85586054 -187.81079752 177.78193621 -185.04199219 171.69775391 C-184.4317691 170.36745408 -183.82142417 169.03721014 -183.2109375 167.70703125 C-182.6854834 166.55307861 -182.1600293 165.39912598 -181.61865234 164.21020508 C-179.96336161 160.92733662 -178.1980581 157.94794115 -176 155 C-175.34 155 -174.68 155 -174 155 C-173.62875 153.824375 -173.62875 153.824375 -173.25 152.625 C-171.78959773 149.55815522 -171.07707331 149.20550815 -168 148 C-165.95703125 147.76171875 -165.95703125 147.76171875 -163.8125 147.6875 C-157.74350959 147.12574221 -152.33406972 144.58030125 -148.22265625 140.03515625 C-146.68189304 137.92742119 -146.68189304 137.92742119 -147.3125 134.75 C-147.539375 133.8425 -147.76625 132.935 -148 132 C-152.63055577 130.45648141 -157.38275455 130.66015455 -162.23828125 130.4765625 C-166.28569394 129.96380617 -170.02457475 128.97542525 -173 126 C-173.87482754 114.88538784 -173.04408901 105.76406885 -165.9375 96.8125 C-160.30207627 90.85195567 -153.37826042 86.73346304 -145.6875 84 C-141.28297085 82.38892419 -139.40930077 80.42550728 -136.62890625 76.75 C-132.98610132 72.83638703 -127.52761979 70.11601037 -122.19140625 69.87109375 C-121.10666016 69.93490234 -121.10666016 69.93490234 -120 70 C-120.46540121 73.41725151 -120.96013449 76.80188786 -121.640625 80.18359375 C-124.21689764 93.94022907 -121.72873491 107.39383909 -114.20605469 119.30761719 C-108.12718536 127.8377229 -99.54019316 134.54441737 -91.43359375 141.02734375 C-84.04116387 147.01960232 -78.40248393 153.75354179 -74.9453125 162.7421875 C-74.22395142 165.12116953 -74.22395142 165.12116953 -72.1875 166 C-68.96598214 166 -67.53619014 164.96554736 -65 163 C-59.86721949 156.54736165 -58.6060929 150.73456405 -59.515625 142.72265625 C-60.68029176 136.17610194 -62.56655331 130.15551238 -65.046875 124.01171875 C-65.64833163 122.49447182 -66.24956041 120.97713455 -66.85058594 119.4597168 C-67.317005 118.28933365 -67.317005 118.28933365 -67.79284668 117.0953064 C-90.65929705 59.57266682 -90.65929705 59.57266682 -78 30 C-70.66215748 14.72877992 -58.09405204 4.05171761 -42.46875 -1.9765625 C-29.57007495 -5.94253443 -12.09311009 -6.48051833 0 0 Z " fill="#FE0000" transform="translate(298,14)"/>
<path d="M0 0 C0.67836914 -0.00365067 1.35673828 -0.00730133 2.05566406 -0.01106262 C4.2977808 -0.01916788 6.53917474 -0.00555901 8.78125 0.0090332 C10.3391927 0.00955182 11.89713607 0.00903407 13.45507812 0.00752258 C16.72015146 0.00761231 19.98497788 0.01804143 23.25 0.03613281 C27.43666956 0.0588201 31.62297828 0.05936412 35.80969238 0.05261517 C39.02672537 0.04927477 42.24367599 0.05590659 45.46069336 0.0657444 C47.00447153 0.06959547 48.54825886 0.070745 50.09204102 0.06915855 C52.24903847 0.06878797 54.40557217 0.08140564 56.5625 0.09765625 C57.79033203 0.10226364 59.01816406 0.10687103 60.28320312 0.11161804 C63.28125 0.37231445 63.28125 0.37231445 66.28125 2.37231445 C67.89735585 9.11550043 65.1504341 14.83779382 62.09375 20.68481445 C61.25943969 22.35294737 60.42740155 24.02221866 59.59765625 25.69262695 C58.9946167 26.89387207 58.9946167 26.89387207 58.37939453 28.11938477 C56.55066934 31.87115801 55.036681 35.73807227 53.546875 39.6340332 C52.92039062 40.98948242 52.92039062 40.98948242 52.28125 42.37231445 C51.98565186 43.40376587 51.98565186 43.40376587 51.68408203 44.45605469 C50.56317094 47.26704578 49.7277277 48.54478909 47.28125 50.37231445 C41.9083489 51.33857227 36.70413143 51.31247261 31.26074219 51.140625 C28.65703996 51.05983896 26.05796647 51.0381611 23.453125 51.02661133 C21.79942719 51.00336055 20.14577211 50.97678208 18.4921875 50.9465332 C17.71402679 50.93692062 16.93586609 50.92730804 16.13412476 50.91740417 C10.71562851 50.72595531 10.71562851 50.72595531 8.66473389 49.05625916 C6.37536019 46.26968626 5.0179835 42.99536198 3.5234375 39.73950195 C3.1749173 38.98823029 2.82639709 38.23695862 2.46731567 37.46292114 C1.73265402 35.87249659 1.0016066 34.28039822 0.27392578 32.68676758 C-0.83316586 30.27041553 -1.96076329 27.86439196 -3.08984375 25.45825195 C-3.80336623 23.90675797 -4.51564553 22.35469154 -5.2265625 20.80200195 C-5.56197052 20.09228241 -5.89737854 19.38256287 -6.24295044 18.65133667 C-8.39929768 13.85806324 -10.25309705 8.70345071 -9.71875 3.37231445 C-7.34477694 -0.46597624 -4.20099029 -0.00215356 0 0 Z " fill="#FE0202" transform="translate(40.71875,176.627685546875)"/>
<path d="M0 0 C3.89796298 1.65870765 5.41939184 3.13781832 7 7 C7.64010706 11.08320923 7.93323987 15.20889732 5.984375 18.94921875 C3.85610239 21.59673859 2.23570965 22.92143012 -1 24 C-5.71352648 24.38635463 -8.08832186 24.43895614 -12.375 22.375 C-15.47069663 19.57413162 -16.29064095 18.09851894 -17 14 C-17.14759508 9.30463157 -16.61387179 6.7397942 -13.5625 3.0625 C-9.12536382 -0.50885351 -5.55746656 -0.53843967 0 0 Z " fill="#FE0000" transform="translate(98,243)"/>
<path d="M0 0 C3.4794963 1.36154203 4.70766749 2.59073448 6.875 5.625 C8.34707462 10.04122386 8.3627424 13.54235467 7 18 C4.43464804 21.24044458 2.913195 22.69560167 -1 24 C-4.68382769 24.13156527 -7.49053585 24.16982138 -11 23 C-11 22.34 -11 21.68 -11 21 C-11.639375 20.71125 -12.27875 20.4225 -12.9375 20.125 C-15 19 -15 19 -16 17 C-16.51512617 12.90842645 -16.94367269 8.76410454 -14.953125 5.04296875 C-10.47927811 -0.36512264 -6.64955952 -0.6223158 0 0 Z " fill="#FE0000" transform="translate(50,243)"/>
<path d="M0 0 C0.33 0 0.66 0 1 0 C0.96519531 1.17433594 0.93039063 2.34867188 0.89453125 3.55859375 C0.36255698 29.23038243 7.56058218 51.27940591 21.0625 73.0625 C27.91951823 84.25224953 33.85594052 95.48593509 31.1875 108.9375 C30.46326173 111.85078927 29.40574478 114.34865859 28 117 C27.34 117 26.68 117 26 117 C26.33 115.9275 26.66 114.855 27 113.75 C30.28762287 100.38664085 26.74232341 90.47644204 19.8984375 79.11328125 C19.27195313 78.08589844 18.64546875 77.05851562 18 76 C3.12665202 51.03176264 -4.44465252 29.04897895 0 0 Z " fill="#FDE5E8" transform="translate(231,59)"/>
<path d="M0 0 C0.33 0 0.66 0 1 0 C0.9690625 1.23234375 0.938125 2.4646875 0.90625 3.734375 C0.90625 9.64368996 1.7008443 15.40392409 2.5 21.25 C2.78409979 23.35899307 3.06545166 25.46835855 3.34375 27.578125 C3.53227539 28.96112793 3.53227539 28.96112793 3.72460938 30.37207031 C3.99339256 32.93694811 4.04890248 35.42330491 4 38 C-0.59499372 33.86836699 -1.74409952 28.72063792 -2.16113281 22.65722656 C-2.26048044 19.998925 -2.30218298 17.34761177 -2.3125 14.6875 C-2.31789795 13.81552979 -2.3232959 12.94355957 -2.32885742 12.04516602 C-2.27961966 7.60220768 -2.08785918 4.03430956 0 0 Z " fill="#F9AEB1" transform="translate(162,204)"/>
<path d="M0 0 C0.33 0 0.66 0 1 0 C0.96519531 1.79630859 0.96519531 1.79630859 0.9296875 3.62890625 C0.79331532 13.96229532 1.29222088 23.79906935 3 34 C2.34 34 1.68 34 1 34 C0.67 34.99 0.34 35.98 0 37 C-3.1245541 24.39019237 -1.93877081 12.67125207 0 0 Z " fill="#FDB7BB" transform="translate(231,59)"/>
<path d="M0 0 C0.33 0 0.66 0 1 0 C2.2125228 8.76621212 2.20878526 16.06191134 -2 24 C-2.66 24 -3.32 24 -4 24 C-3.67 22.96875 -3.34 21.9375 -3 20.875 C-1.41384909 14.68677744 -1.83976747 8.33808671 -2 2 C-1.34 2 -0.68 2 0 2 C0 1.34 0 0.68 0 0 Z " fill="#FFC0C4" transform="translate(261,152)"/>
<path d="M0 0 C0.33 0 0.66 0 1 0 C1.13794954 7.06608191 0.74805717 13.97360585 0 21 C-0.66 20.67 -1.32 20.34 -2 20 C-2.05425226 17.60385874 -2.09379027 15.20896147 -2.125 12.8125 C-2.14175781 12.13896484 -2.15851563 11.46542969 -2.17578125 10.77148438 C-2.21538674 6.71192193 -1.80020002 3.65001185 0 0 Z " fill="#FAD4D6" transform="translate(162,204)"/>
<path d="M0 0 C3 1 3 1 4.16796875 2.70703125 C4.50441406 3.40183594 4.84085937 4.09664062 5.1875 4.8125 C5.53167969 5.49957031 5.87585938 6.18664062 6.23046875 6.89453125 C7 9 7 9 7 13 C6.34 13 5.68 13 5 13 C4.16209211 11.21046815 3.32980604 9.41830305 2.5 7.625 C1.80390625 6.12839844 1.80390625 6.12839844 1.09375 4.6015625 C0 2 0 2 0 0 Z " fill="#FEF3F4" transform="translate(254,141)"/>
<path d="M0 0 C1.32 0 2.64 0 4 0 C3.67 1.32 3.34 2.64 3 4 C1.68 4.33 0.36 4.66 -1 5 C-0.67 3.35 -0.34 1.7 0 0 Z " fill="#FCF4F5" transform="translate(143,118)"/>
<path d="M0 0 C2.97 0.495 2.97 0.495 6 1 C2.71536341 3.18975773 -0.20696275 3.99806563 -4 5 C-2.68 3.35 -1.36 1.7 0 0 Z " fill="#8E3599" transform="translate(292,13)"/>
</svg>
